<svg xmlns="http://www.w3.org/2000/svg" viewBox="0 0 373.69 372.8" style="fill: #fff">
    <path d="M84.41,54.56c3,3.47,1.87,8.08-2.11,11.51a14.71,14.71,0,0,1-6.62,3.23A.66.66,0,0,1,75,69L72.2,65.59a.53.53,0,0,1,.09-.78l.6-.52a.55.55,0,0,1,.76,0L77,67a8,8,0,0,0,4.09-2c3-2.56,3.81-5.61,1.63-8.15-1.69-2-3.68-2-7.51-.66l-1.49.52c-4.12,1.4-7.53,1.35-10-1.51-2.93-3.41-1.76-7.79,1.84-10.89a10.31,10.31,0,0,1,5.73-2.56A.79.79,0,0,1,72,42l2.55,3.17a.54.54,0,0,1-.09.79l-.65.56a.56.56,0,0,1-.77.05L69.79,44a6.26,6.26,0,0,0-3.21,1.57c-2.48,2.14-3.28,4.91-1.26,7.26,1.72,2,4,2.06,6.92,1l1.55-.57C79.21,51.39,82,51.8,84.41,54.56Z"/>
    <path d="M105.14,40.91l2.48,4a.64.64,0,0,1,0,.73,15.68,15.68,0,0,1-5.31,5.52c-6.58,4.27-14.12,2.44-18.52-4.32S81,32.32,87.41,28.18a14.47,14.47,0,0,1,6.89-2.42.63.63,0,0,1,.65.35L97.63,30a.52.52,0,0,1-.16.75l-.79.51a.54.54,0,0,1-.75-.11l-3-3.22a8.93,8.93,0,0,0-4.26,1.44c-4.8,3.12-6,9.16-1.83,15.61s10,7.93,14.8,4.81a11.21,11.21,0,0,0,3.56-3.65L103.43,42a.56.56,0,0,1,.21-.74l.75-.49A.52.52,0,0,1,105.14,40.91Z"/>
    <path d="M131.63,34.88l.13.29a.53.53,0,0,1-.19.72,10.43,10.43,0,0,1-2,1.18c-2.13,1-3.25.76-4.32-.54L121,31.37c-2-2.51-3.47-2.61-6.49-1.25l-2.2,1c1.53,3.38,2.94,6.49,4.44,9.53l3.1-1a.5.5,0,0,1,.68.28l.1.23a.52.52,0,0,1-.27.72l-8.75,4a.51.51,0,0,1-.72-.27l-.1-.23a.5.5,0,0,1,.23-.7L113.78,42c-1.31-3.16-2.75-6.34-4.21-9.55l-.82-1.81c-1.44-3.18-2.89-6.39-4.42-9.5l-3.09,1a.51.51,0,0,1-.69-.28l-.09-.2a.51.51,0,0,1,.27-.71l9.28-4.2c5.35-2.42,9.49-1.57,11.3,2.43,1.31,2.88.37,6.31-3.24,8.81,2.24-.46,3.87.27,5.87,2.49l4.39,5,2.61-.87A.51.51,0,0,1,131.63,34.88ZM118.44,20.42c-1.41-3.12-4-4.09-7.88-2.32l-3.38,1.53c1.33,3.19,2.77,6.37,4.49,10.18l3.24-1.47C118.75,26.6,119.81,23.43,118.44,20.42Z"/>
    <path d="M152.9,16.2c2.23,8.24-1.87,14.72-7.78,16.32s-12.75-1.66-15.05-10.14C127.86,14.18,132,7.65,138,6S150.61,7.73,152.9,16.2ZM144.71,31c5.42-1.47,6.45-7.86,4.82-13.87s-5.73-11-11.15-9.52-6.52,7.88-4.9,13.86S139.22,32.47,144.71,31Z"/>
    <path d="M177.93,19.74l.42,6.08a.54.54,0,0,1-.51.6l-18,2a.51.51,0,0,1-.6-.48l0-.25a.49.49,0,0,1,.44-.59l3.18-.72c-.28-3.44-.67-6.92-1.05-10.35l-.23-2c-.39-3.55-.78-7-1.27-10.4H157a.51.51,0,0,1-.56-.48l0-.22a.51.51,0,0,1,.48-.6l9.55-1.06a.51.51,0,0,1,.6.47l0,.22a.49.49,0,0,1-.44.59l-3.18.72c.27,3.45.67,7,1.07,10.6l.28,2.51c.33,2.9.71,6.33,1.2,9.72l9.45-1.06.47-5.16a.55.55,0,0,1,.56-.53l.85-.1A.47.47,0,0,1,177.93,19.74Z"/>
    <path d="M201,20.1l-.4,6.08a.54.54,0,0,1-.59.52l-18.11-.46a.51.51,0,0,1-.52-.55v-.25a.5.5,0,0,1,.52-.53l3.25-.28c.19-3.45.28-6.94.37-10.4l.05-2c.09-3.56.18-7,.16-10.47l-3.23-.44A.51.51,0,0,1,182,.74V.53a.5.5,0,0,1,.55-.53l9.61.24a.52.52,0,0,1,.53.56V1a.5.5,0,0,1-.52.53l-3.25.28c-.19,3.45-.28,7-.37,10.65L188.5,15c-.07,2.92-.16,6.37-.14,9.79l9.5.25L199,20a.56.56,0,0,1,.62-.46l.86,0A.47.47,0,0,1,201,20.1Z"/>
    <path d="M226.6,16.86l-.43,1.94c-.76,3.37-1.53,6.81-2.19,10.21l3.47,1.14a.51.51,0,0,1,.38.64l-.06.25a.51.51,0,0,1-.64.41L217,29.17a.52.52,0,0,1-.41-.65l.05-.25a.5.5,0,0,1,.61-.41l3.66.45c.82-3.32,1.59-6.73,2.36-10.17l.44-1.93c.77-3.44,1.55-6.92,2.24-10.31L219.5,4.46l-1.93,4.47a.55.55,0,0,1-.7.32l-.74-.16a.49.49,0,0,1-.37-.64l1.47-5.57a.54.54,0,0,1,.68-.4l19.74,4.43a.54.54,0,0,1,.45.65l-1,5.69c-.08.35-.26.49-.61.41l-.74-.16a.56.56,0,0,1-.5-.59L235.45,8,229,6.6C228.16,9.91,227.39,13.35,226.6,16.86Z"/>
    <path d="M261.35,29.63c-3.14,7.94-10.3,10.69-16,8.44s-9.24-8.95-6-17.12c3.12-7.9,10.36-10.66,16.09-8.4S264.57,21.46,261.35,29.63Zm-15.41,7c5.22,2.06,9.87-2.45,12.16-8.25s2-12.23-3.27-14.29-9.93,2.43-12.21,8.19S240.65,34.51,245.94,36.6Z"/>
    <path d="M287.44,60.3l-.14.21a.51.51,0,0,1-.75.15l-7.22-4.88a.51.51,0,0,1-.15-.75l.14-.21a.51.51,0,0,1,.72-.16L282.67,56,284,42l-6.38,1.86c-1.17,1.73-2.56,3.79-4,6l2.57,2.17a.5.5,0,0,1,.12.73l-.14.21a.5.5,0,0,1-.75.14l-8-5.37a.5.5,0,0,1-.14-.75l.14-.21a.5.5,0,0,1,.72-.17l2.88,1.52c2-2.78,4-5.67,5.93-8.6l1.11-1.64c2-2.89,3.93-5.82,5.77-8.74l-2.48-2.12a.5.5,0,0,1-.12-.73l.12-.17a.51.51,0,0,1,.75-.15l8,5.38a.51.51,0,0,1,.15.75l-.12.18a.54.54,0,0,1-.74.19l-3-1.57c-2,2.76-3.91,5.66-5.9,8.61l-1.69,2.51,16.59-5-2.11-2a.53.53,0,0,1-.1-.76l.12-.18a.5.5,0,0,1,.75-.14l6.54,4.41a.5.5,0,0,1,.14.75l-.12.18a.54.54,0,0,1-.74.19l-2.84-1.39-10.38,3L285.3,57.81l2.05,1.73A.53.53,0,0,1,287.44,60.3Z"/>
    <path d="M322.83,60.51l-2.34-1.67-16.7,17.61a.51.51,0,0,1-.76,0l-.18-.18a.7.7,0,0,1-.25-.68l3.58-26.73L292.35,63.55l2.4,2.81a.53.53,0,0,1,0,.76l-.17.19a.52.52,0,0,1-.77,0l-5.93-5.62a.5.5,0,0,1,0-.76l.17-.18a.52.52,0,0,1,.76-.07l2.34,1.71,15.46-16.29.09-.57-1.58-1.89a.52.52,0,0,1,0-.76l.12-.13a.5.5,0,0,1,.76,0l3.4,3.21a.72.72,0,0,1,.25.68l-3.45,25,13.08-13.89-2.4-2.86a.54.54,0,0,1,0-.77L317,54a.51.51,0,0,1,.77,0l5.91,5.59a.51.51,0,0,1,0,.76l-.15.16A.53.53,0,0,1,322.83,60.51Z"/>
    <path d="M332.41,91.88c-6.82,5.13-14.36,3.73-18-1.16s-3.2-12.46,3.82-17.74c6.79-5.11,14.41-3.67,18.11,1.25S339.43,86.6,332.41,91.88Zm-16.78-2.12c3.38,4.49,9.7,3.08,14.68-.67s8.07-9.4,4.69-13.89-9.74-3.12-14.69.6S312.22,85.22,315.63,89.76Z"/>
    <path d="M361.33,122.47,359.69,120l-24.75,4.68a.55.55,0,0,1-.67-.32l-.21-.42a.58.58,0,0,1,.13-.74l15.86-15.11-21.57,3.24a.6.6,0,0,1-.66-.37l-.19-.39a.56.56,0,0,1,.16-.75l19-16.8-1-2.72a.52.52,0,0,1,.3-.7l.19-.09a.5.5,0,0,1,.72.25L351,98a.51.51,0,0,1-.26.72l-.19.09a.54.54,0,0,1-.74-.2l-1.71-2.73L332.79,109l20.3-2.82-1.17-3.27a.53.53,0,0,1,.3-.7l.19-.1a.5.5,0,0,1,.72.26l3.95,8.2a.52.52,0,0,1-.25.73l-.19.09a.53.53,0,0,1-.74-.21l-1.87-3-15,14.05,19.89-3.82-1-3.1a.54.54,0,0,1,.3-.71l.19-.09a.51.51,0,0,1,.72.25l3.41,7.07a.5.5,0,0,1-.26.72l-.19.1A.53.53,0,0,1,361.33,122.47Z"/>
    <path d="M360.44,168.25l-1.95.34c-3.44.6-6.88,1.19-10.31,1.86l.23,3.25a.49.49,0,0,1-.44.59l-.25,0a.5.5,0,0,1-.62-.44l-1.6-9.19a.51.51,0,0,1,.44-.62l.25,0a.5.5,0,0,1,.62.4l.84,2.92c3.41-.51,6.85-1.15,10.23-1.7l10.68-1.81-23.62-4.93a.67.67,0,0,1-.54-.57l-.09-.53a.65.65,0,0,1,.32-.71L365,144.18,357,145.76,344.35,148l.16,3a.53.53,0,0,1-.48.6l-.25,0a.51.51,0,0,1-.63-.44l-1.29-7.48a.51.51,0,0,1,.44-.63l.25,0a.52.52,0,0,1,.65.4l.86,2.88,22.5-3.86-.18-3.15a.53.53,0,0,1,.48-.6l.22,0a.5.5,0,0,1,.62.44l1,5.6a.65.65,0,0,1-.31.71l-20,12.61,23.06,4.81a.66.66,0,0,1,.53.57l1,6a.51.51,0,0,1-.44.62l-.21,0a.5.5,0,0,1-.62-.4l-.91-3.14C367.4,167.05,364,167.64,360.44,168.25Z"/>
    <path d="M359.78,201c-8.53-.14-13.62-5.88-13.52-12s5.12-11.8,13.91-11.65c8.49.13,13.62,5.94,13.52,12.1S368.57,201.15,359.78,201Zm-11.94-12c-.09,5.61,5.77,8.37,12,8.47s12.14-2.46,12.23-8.08-5.77-8.45-12-8.55S347.94,183.35,347.84,189Z"/>
    <path d="M343.09,226.46l-.32-.05a.52.52,0,0,1-.48-.56,9.93,9.93,0,0,1,.15-2.32c.41-2.3,1.21-3.11,2.88-3.25l6.69-.65c3.23-.27,4.12-1.39,4.7-4.65l.42-2.38c-3.65-.64-7-1.24-10.37-1.72l-.92,3.13a.5.5,0,0,1-.62.4l-.25,0a.52.52,0,0,1-.44-.63l1.67-9.46a.51.51,0,0,1,.63-.44l.25,0a.5.5,0,0,1,.44.59l-.21,3.26c3.35.7,6.79,1.3,10.26,1.92l1.95.34c3.44.61,6.92,1.22,10.34,1.72l.91-3.13a.5.5,0,0,1,.62-.4l.22,0a.51.51,0,0,1,.43.63l-1.77,10c-1,5.78-4.06,8.71-8.38,7.95-3.12-.55-5.42-3.26-5.45-7.65-.88,2.11-2.4,3.05-5.36,3.44l-6.61.81-.76,2.64A.5.5,0,0,1,343.09,226.46Zm19.38-2.72c3.37.6,5.62-1,6.36-5.2l.65-3.65c-3.39-.71-6.82-1.31-10.94-2l-.62,3.51C357.19,220.51,359.21,223.17,362.47,223.74Z"/>
    <path d="M341.29,249l-5.37-2a.54.54,0,0,1-.33-.72l6-17.92a.51.51,0,0,1,.68-.34l.24.08a.51.51,0,0,1,.36.65l-.69,3.19c3.21,1.18,6.52,2.29,9.86,3.41l1.88.63c3.31,1.11,6.66,2.23,10,3.22l1.37-2.95a.5.5,0,0,1,.67-.31l.2.07a.51.51,0,0,1,.35.68l-5.78,17.24a.52.52,0,0,1-.69.37l-5.45-1.63a.48.48,0,0,1-.35-.65l.23-.68a.54.54,0,0,1,.63-.43l4.75.67,3.12-9.31c-3.18-1.18-6.52-2.3-10-3.47l-2,6,3.06,1.51a.51.51,0,0,1,.29.71l-.13.41a.52.52,0,0,1-.69.34l-7.61-2.55a.5.5,0,0,1-.34-.68l.14-.41a.51.51,0,0,1,.66-.39l3.24.63,2-6c-3.79-1.27-7.13-2.39-10.48-3.4l-3.35,10,4.17,2.31a.54.54,0,0,1,.29.7l-.24.72A.48.48,0,0,1,341.29,249Z"/>
    <path d="M291.32,316.7c-3-3.42-2-8.05,1.93-11.54a14.82,14.82,0,0,1,6.57-3.34.65.65,0,0,1,.7.25l2.83,3.4a.54.54,0,0,1-.07.79l-.59.53a.55.55,0,0,1-.76,0l-3.42-2.65a8,8,0,0,0-4.05,2.11c-2.93,2.6-3.73,5.67-1.5,8.17,1.72,1.94,3.71,1.91,7.51.55l1.49-.55c4.09-1.47,7.51-1.47,10,1.36,3,3.36,1.88,7.76-1.67,10.92a10.28,10.28,0,0,1-5.69,2.64.8.8,0,0,1-.7-.29l-2.59-3.14a.54.54,0,0,1,.07-.79l.65-.57a.56.56,0,0,1,.77-.06l3.29,2.57a6.3,6.3,0,0,0,3.18-1.62c2.45-2.18,3.2-5,1.14-7.28-1.74-2-4-2-6.93-.92l-1.54.6C296.57,319.79,293.73,319.42,291.32,316.7Z"/>
    <path d="M270.78,330.67l-2.54-4a.65.65,0,0,1-.06-.74,15.8,15.8,0,0,1,5.22-5.59c6.51-4.37,14.08-2.66,18.58,4s3,14.49-3.28,18.73a14.54,14.54,0,0,1-6.85,2.52.65.65,0,0,1-.66-.34l-2.73-3.8a.52.52,0,0,1,.14-.75l.78-.52a.55.55,0,0,1,.76.1l3.09,3.17a9.15,9.15,0,0,0,4.24-1.5c4.75-3.2,5.88-9.25,1.58-15.65s-10.12-7.77-14.87-4.57a11.18,11.18,0,0,0-3.5,3.69l1.79,4.09a.55.55,0,0,1-.2.74l-.74.5A.52.52,0,0,1,270.78,330.67Z"/>
    <path d="M244.4,337.1l-.13-.3a.52.52,0,0,1,.17-.72,10,10,0,0,1,2-1.21c2.12-1,3.24-.81,4.32.47l4.39,5.1c2.09,2.48,3.52,2.56,6.51,1.15l2.18-1c-1.58-3.36-3-6.45-4.58-9.46l-3.08,1a.5.5,0,0,1-.69-.27l-.1-.23a.51.51,0,0,1,.25-.72l8.7-4.1a.52.52,0,0,1,.72.26l.1.23a.49.49,0,0,1-.22.7l-2.78,1.71c1.36,3.14,2.85,6.3,4.36,9.49l.84,1.79c1.49,3.16,3,6.35,4.56,9.43l3.09-1.06a.51.51,0,0,1,.69.28l.09.19a.51.51,0,0,1-.26.72l-9.22,4.35c-5.3,2.5-9.46,1.71-11.33-2.26-1.35-2.87-.47-6.31,3.1-8.87-2.23.5-3.87-.2-5.9-2.39l-4.47-4.93-2.6.9A.5.5,0,0,1,244.4,337.1Zm13.41,14.25c1.46,3.1,4,4,7.92,2.2l3.35-1.58c-1.37-3.17-2.86-6.33-4.64-10.11l-3.23,1.52C257.4,345.18,256.4,348.36,257.81,351.35Z"/>
    <path d="M223.43,356.11c-2.36-8.2,1.64-14.75,7.52-16.44s12.79,1.46,15.21,9.9c2.35,8.17-1.71,14.77-7.63,16.47S225.85,364.55,223.43,356.11Zm8-14.92c-5.4,1.55-6.33,8-4.61,13.95s5.91,10.89,11.31,9.34,6.39-8,4.68-13.93S236.86,339.62,231.39,341.19Z"/>
    <path d="M198.36,352.94l-.52-6.06a.54.54,0,0,1,.5-.61l18-2.29a.51.51,0,0,1,.6.47l0,.25a.51.51,0,0,1-.44.6l-3.16.76c.33,3.45.77,6.91,1.2,10.34l.26,2c.45,3.53.89,7,1.43,10.37l3.26,0a.51.51,0,0,1,.57.47l0,.22a.5.5,0,0,1-.47.6l-9.53,1.21a.5.5,0,0,1-.6-.46l0-.22a.51.51,0,0,1,.43-.6l3.17-.76c-.33-3.44-.77-6.94-1.24-10.59l-.32-2.49c-.37-2.9-.8-6.32-1.34-9.7l-9.43,1.2-.39,5.16a.58.58,0,0,1-.55.55l-.86.11C198.57,353.46,198.4,353.26,198.36,352.94Z"/>
    <path d="M175.26,352.88l.35-6.08a.53.53,0,0,1,.58-.53l18.11.29a.51.51,0,0,1,.53.55v.25a.49.49,0,0,1-.51.53l-3.24.31c-.17,3.45-.22,6.95-.28,10.4l0,2c-.06,3.56-.12,7.05-.06,10.47l3.23.42a.5.5,0,0,1,.5.54v.22a.5.5,0,0,1-.55.53l-9.61-.15a.52.52,0,0,1-.53-.55v-.22a.49.49,0,0,1,.51-.53l3.24-.31c.17-3.45.22-7,.28-10.65l0-2.52c.05-2.92.11-6.37.05-9.79l-9.5-.16L177.24,353a.56.56,0,0,1-.62.46h-.87A.47.47,0,0,1,175.26,352.88Z"/>
    <path d="M149.72,356.57l.4-1.94c.71-3.38,1.43-6.84,2-10.24l-3.49-1.1a.49.49,0,0,1-.38-.63l.05-.24A.5.5,0,0,1,149,342l10.18,2.12a.5.5,0,0,1,.42.64l0,.24a.5.5,0,0,1-.6.43l-3.67-.4c-.77,3.34-1.48,6.76-2.2,10.21l-.41,1.94c-.71,3.45-1.44,6.94-2.08,10.34l6.46,1.35,1.85-4.51a.56.56,0,0,1,.7-.33l.74.15a.49.49,0,0,1,.38.63l-1.39,5.6a.53.53,0,0,1-.67.41l-19.81-4.13a.52.52,0,0,1-.45-.64l.89-5.7c.07-.35.25-.5.6-.43l.74.16a.56.56,0,0,1,.51.58l-.1,4.87,6.45,1.35C148.27,363.55,149,360.09,149.72,356.57Z"/>
    <path d="M114.8,344.34c3-8,10.12-10.84,15.85-8.69s9.38,8.81,6.28,17c-3,7.95-10.19,10.82-16,8.65S111.7,352.56,114.8,344.34Zm15.29-7.2c-5.25-2-9.83,2.6-12,8.43s-1.78,12.26,3.48,14.24,9.9-2.58,12.08-8.38S135.42,339.14,130.09,337.14Z"/>
    <path d="M88.23,314.09l.13-.21a.51.51,0,0,1,.75-.16l7.3,4.76a.51.51,0,0,1,.15.75l-.13.21a.5.5,0,0,1-.72.17l-2.65-1.34-1.08,14,6.35-2c1.14-1.75,2.5-3.83,3.88-6.07l-2.61-2.13a.51.51,0,0,1-.13-.73l.14-.21a.52.52,0,0,1,.75-.16l8,5.26a.5.5,0,0,1,.15.74l-.13.21a.5.5,0,0,1-.72.18L104.8,326c-2,2.81-3.87,5.73-5.79,8.69l-1.09,1.66c-1.9,2.92-3.83,5.88-5.63,8.83l2.52,2.07a.5.5,0,0,1,.12.73l-.11.18a.52.52,0,0,1-.75.16L86,343a.51.51,0,0,1-.16-.75l.12-.18a.54.54,0,0,1,.74-.21l3,1.53c1.91-2.8,3.81-5.72,5.76-8.71l1.65-2.53-16.51,5.22,2.15,1.91a.53.53,0,0,1,.1.76l-.11.18a.51.51,0,0,1-.75.16l-6.6-4.31a.5.5,0,0,1-.16-.75l.12-.18a.52.52,0,0,1,.73-.2L79,336.33l10.33-3.19,1.12-16.6-2.08-1.7A.52.52,0,0,1,88.23,314.09Z"/>
    <path d="M52.86,314.44l2.36,1.63,16.42-17.86a.52.52,0,0,1,.77,0l.18.17a.74.74,0,0,1,.26.68l-3.17,26.79,13.6-14.89-2.44-2.77a.53.53,0,0,1,0-.76l.17-.19a.51.51,0,0,1,.76,0l6,5.52a.51.51,0,0,1,0,.76l-.17.19a.53.53,0,0,1-.76.08L84.55,312l-15.2,16.53-.08.57L70.88,331a.54.54,0,0,1,0,.77l-.12.13a.51.51,0,0,1-.76,0l-3.45-3.16a.7.7,0,0,1-.26-.67l3.06-25L56.47,317.16,58.91,320a.54.54,0,0,1,0,.77l-.14.16a.52.52,0,0,1-.77,0l-6-5.5a.51.51,0,0,1,0-.76l.15-.16A.53.53,0,0,1,52.86,314.44Z"/>
    <path d="M42.8,283.22c6.74-5.23,14.3-4,18.05.88s3.39,12.41-3.54,17.8c-6.71,5.21-14.34,3.89-18.12-1S35.86,288.61,42.8,283.22Zm16.8,1.86c-3.44-4.44-9.74-2.92-14.66.9s-7.92,9.52-4.47,14,9.78,3,14.67-.83S63.09,289.57,59.6,285.08Z"/>
    <path d="M13.37,253l1.68,2.47,24.68-5.07a.56.56,0,0,1,.68.31l.21.42a.57.57,0,0,1-.12.74L24.88,267.26l21.52-3.57a.6.6,0,0,1,.66.35l.2.39a.57.57,0,0,1-.15.76L28.33,282.28l1,2.7a.53.53,0,0,1-.29.71l-.19.1a.52.52,0,0,1-.73-.24l-4.09-8.18a.51.51,0,0,1,.24-.73l.19-.09a.53.53,0,0,1,.74.19l1.76,2.7,15.13-13.37-20.25,3.14,1.22,3.25a.54.54,0,0,1-.29.71l-.19.09a.51.51,0,0,1-.73-.24l-4.07-8.14a.51.51,0,0,1,.24-.73l.19-.1a.53.53,0,0,1,.74.2l1.92,2.94,14.79-14.28L15.86,257l1.06,3.09a.54.54,0,0,1-.29.71l-.19.09a.51.51,0,0,1-.73-.24l-3.51-7a.51.51,0,0,1,.24-.72l.19-.1A.54.54,0,0,1,13.37,253Z"/>
    <path d="M13.57,207.27l1.94-.37c3.43-.64,6.86-1.3,10.28-2l-.28-3.24a.5.5,0,0,1,.43-.59l.25-.05a.51.51,0,0,1,.63.43l1.74,9.16a.51.51,0,0,1-.43.63l-.25.05a.5.5,0,0,1-.62-.4L26.37,208c-3.4.57-6.83,1.26-10.2,1.86l-10.65,2,23.69,4.56a.68.68,0,0,1,.55.56l.1.53a.66.66,0,0,1-.31.72L9.38,231.4l8-1.7L30,227.32l-.2-3a.52.52,0,0,1,.47-.6l.25-.05a.51.51,0,0,1,.63.43l1.41,7.46a.51.51,0,0,1-.43.63l-.25.05a.53.53,0,0,1-.66-.39L30.28,229,7.85,233.2l.23,3.14a.52.52,0,0,1-.47.6l-.21,0a.51.51,0,0,1-.63-.43L5.71,231a.64.64,0,0,1,.3-.71l19.83-12.92L2.72,212.88a.65.65,0,0,1-.54-.56l-1.14-6a.51.51,0,0,1,.43-.63l.21,0a.51.51,0,0,1,.63.4l.95,3.11C6.64,208.59,10.07,207.94,13.57,207.27Z"/>
    <path d="M13.91,174.39c8.53.14,13.62,5.87,13.52,12S22.31,198.18,13.52,198C5,197.9-.1,192.09,0,185.94S5.12,174.25,13.91,174.39Zm11.94,12c.09-5.61-5.77-8.37-12-8.47S1.71,180.35,1.62,186s5.77,8.45,12,8.55S25.75,192,25.85,186.35Z"/>
    <path d="M30,148.8l.32,0a.52.52,0,0,1,.49.55,9.63,9.63,0,0,1-.11,2.32c-.37,2.31-1.16,3.13-2.83,3.3l-6.68.75c-3.22.32-4.1,1.46-4.62,4.73l-.39,2.38c3.66.58,7,1.13,10.4,1.56l.87-3.15a.5.5,0,0,1,.61-.41l.25,0a.51.51,0,0,1,.45.62L27.25,171a.51.51,0,0,1-.62.45l-.24,0a.51.51,0,0,1-.46-.59l.16-3.25c-3.36-.65-6.81-1.2-10.29-1.76l-2-.32C10.4,165,6.92,164.41,3.49,164l-.87,3.14a.5.5,0,0,1-.61.41l-.22,0a.5.5,0,0,1-.44-.62L3,156.81c.93-5.79,3.92-8.77,8.26-8.08,3.13.51,5.47,3.18,5.57,7.57.85-2.12,2.35-3.09,5.3-3.52l6.6-.91.72-2.66A.5.5,0,0,1,30,148.8Zm-19.33,3c-3.38-.54-5.6,1.07-6.28,5.3l-.59,3.66c3.39.65,6.84,1.21,11,1.87l.57-3.52C16,155,14,152.34,10.69,151.82Z"/>
    <path d="M31.47,126.24l5.4,1.9a.54.54,0,0,1,.34.71l-5.72,18a.5.5,0,0,1-.67.35l-.24-.07a.51.51,0,0,1-.37-.65l.64-3.2c-3.23-1.13-6.56-2.19-9.92-3.26l-1.89-.6c-3.32-1.05-6.69-2.12-10-3.06l-1.33,3a.5.5,0,0,1-.67.32l-.2-.06a.51.51,0,0,1-.35-.68L12,121.6a.54.54,0,0,1,.69-.39l5.47,1.55a.49.49,0,0,1,.37.65l-.22.68a.56.56,0,0,1-.63.44l-4.76-.6-3,9.37c3.19,1.13,6.55,2.19,10.05,3.31l1.91-6-3.08-1.47a.5.5,0,0,1-.31-.7l.13-.41a.52.52,0,0,1,.68-.36L27,130.09a.51.51,0,0,1,.35.68l-.13.41a.51.51,0,0,1-.65.4L23.27,131l-1.91,6c3.8,1.21,7.17,2.28,10.53,3.23l3.19-10.05L30.88,128a.56.56,0,0,1-.3-.7l.22-.73A.49.49,0,0,1,31.47,126.24Z"/>
</svg>